<svg xmlns="http://www.w3.org/2000/svg" viewbox="0 0 612 612" width="612" height="612">
  <defs>
   <clipPath id="a">
     <path transform="scale(0.95) translate(2,70)" d="m 320 0 c 17.7 0 32 14.3 32 32 v 64 h 120 c 39.8 0 72 32.2 72 72 v 272 c 0 39.8 -32.2 72 -72 72 h -304 c -39.8 0 -72 -32.2 -72 -72 v -272 c 0 -39.8 32.2 -72 72 -72 h 120 v -64 c 0 -17.7 14.3 -32 32 -32 z z h 18 m -74 256 a 40 40 0 1 0 -80 0 a 40 40 0 1 0 80 0 z m 152 40 a 40 40 0 1 0 0 -80 a 40 40 0 1 0 0 80 z m -368 -72 h 16 v 192 h -16 c -26.5 0 -48 -21.5 -48 -48 v -96 c 0 -26.5 21.5 -48 48 -48 z m 544 0 c 26.5 0 48 21.5 48 48 v 96 c 0 26.5 -21.5 48 -48 48 h -16 v -192 h 16 z"/>
    </clipPath>
  </defs>

  <g clip-path="url(#a)">
    <rect x="0" y="0" width="612" height="612" fill="#654ff0"/>
	<path d="m142.16 329.81 40.56 0 27.69 147.47 0.5 0 33.28-147.47 37.94 0 30.06 149.28 0.59 0 31.56-149.28 39.78 0-51.69 216.69-40.25 0-29.81-147.47-0.78 0-31.91 147.47-41 0zm287.69 0 63.94 0 63.5 216.69-41.84 0-13.81-48.22-72.84 0-10.66 48.22-40.75 0zm24.34 53.41-17.69 79.5 55.06 0-20.31-79.5z" fill="#fff"/>
	</g>
</svg>